<?xml version="1.0" encoding="utf-8"?>
<!-- Generator: Adobe Illustrator 22.0.1, SVG Export Plug-In . SVG Version: 6.00 Build 0)  -->
<!DOCTYPE svg PUBLIC "-//W3C//DTD SVG 1.1//EN" "http://www.w3.org/Graphics/SVG/1.1/DTD/svg11.dtd">
<svg version="1.1" id="Layer_1" xmlns="http://www.w3.org/2000/svg" xmlns:xlink="http://www.w3.org/1999/xlink" x="0px" y="0px"
	 viewBox="0 0 24 24" style="enable-background:new 0 0 24 24;" xml:space="preserve">
<g>
	<path d="M18.4,18c-0.4,0-0.7,0.1-0.9,0.2l-2.6-2.6c0.6-0.6,0.9-1.5,0.9-2.3c0-1.9-1.4-3.4-3.1-3.6V5.9c0.8-0.2,1.5-1.1,1.5-2
		c0-1.2-0.9-2-2-2c-1.2,0-2,0.9-2,2c0,0.9,0.7,1.8,1.5,2v3.8c-1.2,0.1-2.1,0.8-2.7,1.8l-3.6-1.4c0-0.2,0.1-0.3,0.1-0.6
		c0-1.2-0.9-2-2-2c-1.2,0-2.1,0.9-2.1,2c0,1.2,0.9,2,2,2c0.6,0,1-0.2,1.4-0.6l3.7,1.5c0,0.4-0.1,0.7-0.1,0.9c0,2.1,1.8,3.7,3.7,3.7
		c0.7,0,1.4-0.2,2-0.6l2.6,2.6c-0.2,0.4-0.4,0.7-0.4,1c0,1.2,0.9,2,2,2s2-0.9,2-2S19.6,18,18.4,18z"/>
	<circle cx="20.5" cy="9.5" r="2"/>
	<circle cx="6.8" cy="20.1" r="2"/>
</g>
</svg>
