<?xml version="1.0" encoding="utf-8"?>
<!-- Generator: Adobe Illustrator 22.0.1, SVG Export Plug-In . SVG Version: 6.00 Build 0)  -->
<!DOCTYPE svg PUBLIC "-//W3C//DTD SVG 1.1//EN" "http://www.w3.org/Graphics/SVG/1.1/DTD/svg11.dtd">
<svg version="1.1" id="Layer_1" xmlns="http://www.w3.org/2000/svg" xmlns:xlink="http://www.w3.org/1999/xlink" x="0px" y="0px"
	 viewBox="0 0 235 64" style="enable-background:new 0 0 235 64;" xml:space="preserve">
<style type="text/css">
	.st0{fill:#FFFFFF;}
</style>
<g>
	<g>
		<path class="st0" d="M64.2,32.1c0,16.7-12.8,30.4-29.1,31.9l-6-6c1,0.1,2,0.2,3,0.2s2-0.1,3-0.2c13-1.5,23.1-12.5,23.1-25.9
			C58.3,17.7,46.6,6,32.2,6S6,17.6,6,32.1C6,45.4,16.1,56.5,29.1,58v6C12.8,62.5,0,48.7,0,32.1C0,14.3,14.4,0,32.1,0
			S64.2,14.4,64.2,32.1z"/>
		<polygon class="st0" points="45.1,30.4 32.3,30.4 27.3,25.5 46.7,25.5 46.7,19.5 18.1,19.5 18.1,25.5 27.3,25.5 27.3,49.3 
			33.3,49.3 33.3,36.4 45.3,36.4 		"/>
	</g>
	<g>
		<path class="st0" d="M85.7,19.8h5l10.6,24.8h-5.7l-2.3-5.5H82.9l-2.3,5.5h-5.5L85.7,19.8z M91.4,34.3l-3.3-8l-3.3,8H91.4z"/>
		<path class="st0" d="M98.8,32.1L98.8,32.1c0-7,5.2-12.7,12.7-12.7c4.6,0,7.3,1.5,9.6,3.8l-3.4,3.9c-1.9-1.7-3.8-2.7-6.2-2.7
			c-4.1,0-7.1,3.4-7.1,7.6v0c0,4.2,2.9,7.6,7.1,7.6c2.8,0,4.5-1.1,6.4-2.8l3.4,3.4c-2.5,2.7-5.3,4.3-10,4.3
			C104.1,44.6,98.8,39.1,98.8,32.1z"/>
		<path class="st0" d="M131.6,19.8h5l10.6,24.8h-5.7l-2.3-5.5h-10.4l-2.3,5.5H121L131.6,19.8z M137.3,34.3l-3.3-8l-3.3,8H137.3z"/>
		<path class="st0" d="M219.8,34.9L210.3,20h6.3l5.9,9.9l6-9.9h6.2l-9.5,14.8v9.8h-5.4V34.9z"/>
		<g>
			<polygon class="st0" points="180.8,44.6 184.7,44.6 184.7,39.8 177.7,39.8 			"/>
			<polygon class="st0" points="174.3,34.6 183,34.6 183,29.8 171.4,29.8 171.4,24.8 184.6,24.8 184.6,20 165,20 			"/>
		</g>
		<polygon class="st0" points="207.9,20 205.7,20 199.2,30.4 192.8,20 186.9,20 186.9,44.6 192.2,44.6 192.2,28.6 199.1,39 
			199.2,39 206.2,28.5 206.2,44.6 211.6,44.6 211.6,25.4 		"/>
		<path class="st0" d="M164.5,22.4l-1.2-1.8c-1.6-0.6-3.3-0.9-5.1-0.9h-9.7v24.9h9.7c7.4,0,12.6-4.9,13.1-11.3L164.5,22.4z
			 M165.6,32.2c0,4.4-3,7.4-7.5,7.4h-4.2v-15h4.2C162.6,24.7,165.6,27.8,165.6,32.2L165.6,32.2z"/>
	</g>
</g>
</svg>
