<?xml version="1.0" encoding="iso-8859-1"?>
<!-- Generator: Adobe Illustrator 19.0.0, SVG Export Plug-In . SVG Version: 6.00 Build 0)  -->
<svg version="1.1" id="Layer_1" xmlns="http://www.w3.org/2000/svg" xmlns:xlink="http://www.w3.org/1999/xlink" x="0px" y="0px"
	 viewBox="0 0 512 512" style="enable-background:new 0 0 512 512;" xml:space="preserve">
<g>
	<g>
		<path d="M501.76,389.12H460.8v-40.96c0-5.655-4.585-10.24-10.24-10.24H409.6c-5.655,0-10.24,4.585-10.24,10.24v40.96H358.4
			c-5.655,0-10.24,4.585-10.24,10.24v40.96c0,5.655,4.585,10.24,10.24,10.24h40.96v40.96c0,5.655,4.585,10.24,10.24,10.24h40.96
			c5.655,0,10.24-4.585,10.24-10.24v-40.96h40.96c5.655,0,10.24-4.585,10.24-10.24v-40.96C512,393.705,507.415,389.12,501.76,389.12
			z M491.52,430.08h-40.96c-5.655,0-10.24,4.585-10.24,10.24v40.96h-20.48v-40.96c0-5.655-4.585-10.24-10.24-10.24h-40.96V409.6
			h40.96c5.655,0,10.24-4.585,10.24-10.24V358.4h20.48v40.96c0,5.655,4.585,10.24,10.24,10.24h40.96V430.08z"/>
	</g>
</g>
<g>
	<g>
		<path d="M511.992,153.518c-0.005-0.6-0.071-1.197-0.181-1.788c-0.029-0.154-0.065-0.303-0.101-0.455
			c-0.112-0.483-0.258-0.957-0.441-1.422c-0.041-0.103-0.07-0.21-0.114-0.312c-0.193-0.447-0.414-0.885-0.674-1.308l-81.92-133.12
			c-1.863-3.028-5.165-4.873-8.721-4.873H296.96h-81.92H92.16c-3.556,0-6.857,1.845-8.721,4.872l-81.92,133.12
			c-0.26,0.422-0.481,0.861-0.674,1.309c-0.044,0.1-0.072,0.207-0.113,0.308c-0.184,0.467-0.329,0.942-0.442,1.425
			c-0.035,0.152-0.072,0.3-0.101,0.455c-0.11,0.592-0.176,1.188-0.18,1.788c0,0.028-0.008,0.054-0.008,0.082v286.72
			c0,5.655,4.585,10.24,10.24,10.24h286.72c5.655,0,10.24-4.585,10.24-10.24s-4.585-10.24-10.24-10.24H20.48V163.84H204.8v112.64
			c0,4.143,2.495,7.875,6.321,9.46c3.827,1.585,8.231,0.708,11.16-2.22L256,250.002l33.719,33.718c1.96,1.96,4.579,3,7.244,3
			c1.319,0,2.65-0.255,3.916-0.78c3.826-1.585,6.321-5.317,6.321-9.46V163.84h184.32v163.84c0,5.655,4.585,10.24,10.24,10.24
			c5.655,0,10.24-4.585,10.24-10.24V153.6C512,153.572,511.992,153.546,511.992,153.518z M204.8,143.36H28.565L97.883,30.72H204.8
			V143.36z M286.72,251.758l-23.479-23.478c-2-2-4.62-3-7.241-3s-5.241,1-7.241,3l-23.479,23.478V163.84h61.44V251.758z
			 M286.72,143.36h-61.44V30.72h61.44V143.36z M307.2,143.36V30.72h106.917l69.317,112.64H307.2z"/>
	</g>
</g>
<g>
</g>
<g>
</g>
<g>
</g>
<g>
</g>
<g>
</g>
<g>
</g>
<g>
</g>
<g>
</g>
<g>
</g>
<g>
</g>
<g>
</g>
<g>
</g>
<g>
</g>
<g>
</g>
<g>
</g>
</svg>
