<?xml version="1.0" encoding="utf-8"?>
<svg id="Layer_1" style="enable-background:new 0 0 512 512;" x="0px" y="0px" viewBox="0 0 512 512" xmlns="http://www.w3.org/2000/svg">
  <g>
    <g>
      <path d="M 511.992 173.998 C 511.987 173.398 511.921 172.801 511.811 172.21 C 511.782 172.056 511.746 171.907 511.71 171.755 C 511.598 171.272 511.452 170.798 511.269 170.333 C 511.228 170.23 511.199 170.123 511.155 170.021 C 510.962 169.574 510.741 169.135 510.481 168.713 L 428.561 35.593 C 426.698 32.565 423.396 30.72 419.84 30.72 L 296.96 30.72 L 215.04 30.72 L 92.16 30.72 C 88.604 30.72 85.303 32.565 83.439 35.592 L 1.519 168.712 C 1.259 169.134 1.038 169.573 0.845 170.021 C 0.802 170.121 0.773 170.228 0.733 170.329 C 0.549 170.796 0.403 171.271 0.29 171.754 C 0.255 171.906 0.218 172.054 0.189 172.209 C 0.079 172.801 0.013 173.397 0.008 173.997 C 0.008 174.025 0 174.051 0 174.079 L 0 460.8 C 0 466.455 4.585 471.04 10.24 471.04 L 500.73 471.04 C 506.385 471.04 510.97 466.455 510.97 460.8 C 510.97 455.145 506.385 450.56 500.73 450.56 L 20.48 450.56 L 20.48 184.32 L 204.8 184.32 L 204.8 296.96 C 204.8 301.103 207.295 304.835 211.121 306.42 C 214.951 308.005 219.351 307.128 222.281 304.2 L 256 270.482 L 289.719 304.2 C 291.679 306.16 294.298 307.2 296.963 307.2 C 298.282 307.2 299.613 306.945 300.879 306.42 C 304.705 304.835 307.2 301.103 307.2 296.96 L 307.2 184.32 L 491.52 184.32 L 490.521 458.036 C 490.521 463.691 495.106 468.276 500.761 468.276 C 506.416 468.276 511.001 463.691 511.001 458.036 L 512 174.08 C 512 174.052 511.992 174.026 511.992 173.998 Z M 204.8 163.84 L 28.565 163.84 L 97.883 51.2 L 204.8 51.2 L 204.8 163.84 Z M 286.72 272.238 L 263.241 248.761 C 261.241 246.761 258.621 245.761 256 245.761 C 253.379 245.761 250.759 246.761 248.759 248.761 L 225.28 272.238 L 225.28 184.32 L 286.72 184.32 L 286.72 272.238 L 286.72 272.238 Z M 286.72 163.84 L 225.28 163.84 L 225.28 51.2 L 286.72 51.2 L 286.72 163.84 Z M 307.2 163.84 L 307.2 51.2 L 414.117 51.2 L 483.434 163.84 L 307.2 163.84 Z"/>
    </g>
  </g>
  <g/>
  <g/>
  <g/>
  <g/>
  <g/>
  <g/>
  <g/>
  <g/>
  <g/>
  <g/>
  <g/>
  <g/>
  <g/>
  <g/>
  <g/>
</svg>