<svg xmlns="http://www.w3.org/2000/svg" xmlns:xlink="http://www.w3.org/1999/xlink" viewBox="0 0 25 30" version="1.1" x="0px" y="0px"><title>69 - Diploma (business, finance, marketing)</title><desc>Created with Sketch.</desc><g stroke="none" stroke-width="1" fill="none" fill-rule="evenodd"><g transform="translate(-148.000000, -779.000000)" fill="#000000"><g transform="translate(148.000000, 779.000000)"><path d="M7.0077,12 L5.0077,12 C4.4557,12 4.0077,12.448 4.0077,13 C4.0077,13.552 4.4557,14 5.0077,14 L7.0077,14 C8.6617,14 10.0077,12.654 10.0077,11 C10.0077,9.346 8.6617,8 7.0077,8 C6.4567,8 6.0077,7.551 6.0077,7 C6.0077,6.449 6.4567,6 7.0077,6 L9.0077,6 C9.5597,6 10.0077,5.552 10.0077,5 C10.0077,4.448 9.5597,4 9.0077,4 L7.0077,4 C5.3537,4 4.0077,5.346 4.0077,7 C4.0077,8.654 5.3537,10 7.0077,10 C7.5587,10 8.0077,10.449 8.0077,11 C8.0077,11.551 7.5587,12 7.0077,12"/><path d="M22.0077,16 L21.0077,16 L21.0077,13 C21.0077,10.243 18.7647,8 16.0077,8 C13.2507,8 11.0077,10.243 11.0077,13 L11.0077,16 L2.0077,16 L2.0077,2 L22.0077,2 L22.0077,16 Z M19.0077,21.382 L16.4547,20.105 C16.3147,20.035 16.1607,20 16.0077,20 C15.8547,20 15.7007,20.035 15.5607,20.105 L13.0077,21.382 L13.0077,17 L13.0077,16.998 C13.0457,17.026 13.0907,17.047 13.1297,17.075 C13.2127,17.134 13.3007,17.185 13.3877,17.239 C13.5557,17.343 13.7277,17.438 13.9077,17.522 C14.0057,17.568 14.1037,17.611 14.2057,17.651 C14.3977,17.725 14.5957,17.784 14.7987,17.835 C14.8927,17.859 14.9837,17.888 15.0807,17.906 C15.3817,17.963 15.6897,18 16.0077,18 C16.3257,18 16.6337,17.963 16.9347,17.906 C17.0307,17.888 17.1227,17.859 17.2167,17.835 C17.4197,17.784 17.6177,17.725 17.8097,17.651 C17.9117,17.611 18.0097,17.568 18.1077,17.522 C18.2877,17.438 18.4607,17.343 18.6277,17.239 C18.7147,17.185 18.8027,17.134 18.8857,17.075 C18.9247,17.047 18.9697,17.026 19.0077,16.998 L19.0077,17 L19.0077,21.382 Z M23.0077,0 L1.0077,0 C0.4557,0 0.0077,0.448 0.0077,1 L0.0077,17 C0.0077,17.552 0.4557,18 1.0077,18 L11.0077,18 L11.0077,23 C11.0077,23.347 11.1877,23.668 11.4817,23.851 C11.7767,24.033 12.1447,24.049 12.4547,23.895 L16.0077,22.118 L19.5607,23.895 C19.7017,23.965 19.8547,24 20.0077,24 C20.1907,24 20.3727,23.95 20.5337,23.851 C20.8277,23.668 21.0077,23.347 21.0077,23 L21.0077,18 L23.0077,18 C23.5607,18 24.0077,17.552 24.0077,17 L24.0077,1 C24.0077,0.448 23.5607,0 23.0077,0 L23.0077,0 Z"/></g></g></g><text x="0" y="39" fill="#000000" font-size="5px" font-weight="bold" font-family="'Helvetica Neue', Helvetica, Arial-Unicode, Arial, Sans-serif">Created by Ben Davis</text><text x="0" y="44" fill="#000000" font-size="5px" font-weight="bold" font-family="'Helvetica Neue', Helvetica, Arial-Unicode, Arial, Sans-serif">from the Noun Project</text></svg>