<?xml version="1.0" encoding="UTF-8" standalone="no"?>
<!DOCTYPE svg PUBLIC "-//W3C//DTD SVG 1.1//EN" "http://www.w3.org/Graphics/SVG/1.1/DTD/svg11.dtd">
<svg width="100%" height="100%" viewBox="0 0 100 125" version="1.1" xmlns="http://www.w3.org/2000/svg" xmlns:xlink="http://www.w3.org/1999/xlink" xml:space="preserve" style="fill-rule:evenodd;clip-rule:evenodd;stroke-linejoin:round;stroke-miterlimit:1.41421;">
    <path d="M5,28.389C5,16.024 15.024,6 27.389,6C39.754,6 49.778,16.024 49.778,28.389C49.778,40.754 39.754,50.778 27.389,50.778C15.024,50.778 5,40.754 5,28.389M20.679,17.895C19.991,19.155 19.758,20.73 19.635,22.248C19.602,22.655 19.575,23.058 19.552,23.45L18,23.45L18,26.581L19.413,26.581C19.39,27.625 19.426,29.836 19.428,29.898L18,29.898L18,32.515L19.559,32.515C19.561,32.542 19.562,32.569 19.564,32.596C19.682,34.4 19.815,36.485 20.679,38.07C20.729,38.163 20.788,38.246 20.841,38.336C21.347,39.196 21.962,39.942 22.661,40.572C25.45,43.078 29.546,43.703 33.167,42.019C34.594,41.357 35.711,40.313 36.402,38.888C36.426,38.839 36.586,38.412 36.742,37.954C36.934,37.386 37.12,36.768 37.031,36.751C37.027,36.75 32.325,35.876 32.325,35.876C32.325,35.876 31.972,38.443 28.839,38.443C27.602,38.443 26.172,38.042 25.487,36.971C25.333,36.729 25.207,36.466 25.095,36.193C24.637,35.084 24.499,33.766 24.435,32.515L31.504,32.515L31.504,29.898L24.338,29.898C24.318,29.083 24.331,26.808 24.335,26.581L31.504,26.581L31.504,23.45L24.425,23.45C24.499,21.943 24.701,20.224 25.487,18.994C26.172,17.923 27.602,17.522 28.839,17.522C30.721,17.522 31.596,18.447 31.999,19.187C32.266,19.678 32.325,20.089 32.325,20.089C32.325,20.089 37.026,19.215 37.031,19.214C37.18,19.186 36.565,17.489 36.427,17.138C36.415,17.109 36.406,17.086 36.402,17.077C35.978,16.203 35.392,15.474 34.675,14.886C34.223,14.516 33.719,14.202 33.167,13.945C28.543,11.795 23.132,13.396 20.679,17.895ZM90.523,70.15L65.901,88.178L53.384,79.255C52.65,78.734 51.66,78.768 50.963,79.337L37.107,90.701L25.955,83.266C25.344,82.859 24.561,82.821 23.914,83.165L6.8,92.246C5.828,92.762 5.458,93.969 5.974,94.941C6.331,95.615 7.022,96 7.737,96C8.051,96 8.371,95.925 8.668,95.767L24.733,87.244L36.125,94.837C36.852,95.321 37.815,95.275 38.495,94.72L52.312,83.387L64.759,92.26C65.461,92.758 66.401,92.752 67.094,92.244L92.878,73.366C93.766,72.716 93.96,71.47 93.309,70.581C92.66,69.693 91.414,69.498 90.523,70.15M94.171,22.836L68.469,64.969C68.031,65.688 67.309,66.189 66.482,66.348C65.654,66.508 64.799,66.31 64.125,65.805L53.027,57.498L39.758,78.523C38.975,79.761 37.409,80.25 36.062,79.678L24.955,74.959L10.076,82.448C9.645,82.665 9.187,82.768 8.734,82.768C7.64,82.768 6.587,82.166 6.061,81.122C5.319,79.648 5.913,77.85 7.388,77.107L23.505,68.994C24.288,68.599 25.209,68.568 26.017,68.913L36.06,73.18L49.699,51.569C50.144,50.864 50.864,50.376 51.684,50.224C52.502,50.073 53.351,50.271 54.019,50.771L65.077,59.048L89.065,19.721C89.925,18.311 91.763,17.867 93.175,18.726C94.584,19.586 95.03,21.425 94.171,22.836"/>
</svg>
