<?xml version="1.0" encoding="UTF-8" standalone="no"?>
<!DOCTYPE svg PUBLIC "-//W3C//DTD SVG 1.1//EN" "http://www.w3.org/Graphics/SVG/1.1/DTD/svg11.dtd">
<svg width="100%" height="100%" viewBox="0 0 100 125" version="1.1" xmlns="http://www.w3.org/2000/svg" xmlns:xlink="http://www.w3.org/1999/xlink" xml:space="preserve" style="fill-rule:evenodd;clip-rule:evenodd;stroke-linejoin:round;stroke-miterlimit:1.41421;">
    <path d="M36.66,34.23L47,34.23L47,43.85L53.25,43.85L53.25,34.23L63.34,34.23C64.673,34.23 65.77,35.327 65.77,36.66L65.77,63.34C65.77,64.673 64.673,65.77 63.34,65.77L36.66,65.77C35.327,65.77 34.23,64.673 34.23,63.34L34.23,36.66C34.23,35.327 35.327,34.23 36.66,34.23ZM8.59,58.1C11.764,58.118 14.669,56.272 16,53.39L21.82,53.39C22.4,53.388 22.876,52.91 22.876,52.33C22.876,52.293 22.874,52.257 22.87,52.22C22.778,51.483 22.724,50.742 22.71,50C22.712,49.258 22.752,48.517 22.83,47.78C22.834,47.743 22.836,47.707 22.836,47.67C22.836,47.09 22.36,46.612 21.78,46.61L16,46.61C14.679,43.744 11.799,41.9 8.644,41.9C4.2,41.9 0.544,45.557 0.544,50C0.544,54.423 4.167,58.071 8.59,58.1L8.59,58.1ZM91.41,41.89C88.252,41.893 85.37,43.741 84.05,46.61L78.23,46.61C77.65,46.612 77.174,47.09 77.174,47.67C77.174,47.707 77.176,47.743 77.18,47.78C77.336,49.256 77.336,50.744 77.18,52.22C77.176,52.257 77.174,52.293 77.174,52.33C77.174,52.91 77.65,53.388 78.23,53.39L84.05,53.39C85.371,56.256 88.251,58.1 91.406,58.1C95.85,58.1 99.506,54.444 99.506,50C99.506,45.558 95.852,41.902 91.41,41.9L91.41,41.89ZM53,77.45C52.777,77.248 52.479,77.15 52.18,77.18C50.704,77.335 49.216,77.335 47.74,77.18C47.703,77.176 47.667,77.174 47.63,77.174C47.05,77.174 46.572,77.65 46.57,78.23L46.57,84C43.698,85.321 41.85,88.206 41.85,91.367C41.85,95.817 45.511,99.477 49.96,99.477C54.409,99.477 58.07,95.817 58.07,91.367C58.07,88.206 56.222,85.321 53.35,84L53.35,78.23C53.348,77.933 53.221,77.649 53,77.45L53,77.45ZM47,22.55C47.223,22.752 47.521,22.85 47.82,22.82C49.296,22.664 50.784,22.664 52.26,22.82C52.297,22.824 52.333,22.826 52.37,22.826C52.95,22.826 53.428,22.35 53.43,21.77L53.43,16C56.302,14.679 58.15,11.794 58.15,8.633C58.15,4.183 54.489,0.523 50.04,0.523C45.591,0.523 41.93,4.183 41.93,8.633C41.93,11.794 43.778,14.679 46.65,16L46.65,21.82C46.665,22.1 46.791,22.363 47,22.55ZM26.45,15C24.929,13.475 22.862,12.617 20.708,12.617C16.259,12.617 12.598,16.278 12.598,20.727C12.598,25.176 16.259,28.837 20.708,28.837C21.671,28.837 22.627,28.665 23.53,28.33L27.64,32.44C27.839,32.638 28.108,32.75 28.389,32.75C28.707,32.75 29.009,32.606 29.21,32.36C29.677,31.781 30.175,31.227 30.7,30.7C31.224,30.175 31.775,29.678 32.35,29.21C32.596,29.009 32.74,28.707 32.74,28.389C32.74,28.108 32.628,27.839 32.43,27.64L28.32,23.53C29.409,20.57 28.678,17.232 26.45,15L26.45,15ZM76.45,71.69L72.34,67.58C72.141,67.382 71.872,67.27 71.591,67.27C71.273,67.27 70.971,67.414 70.77,67.66C69.837,68.814 68.784,69.867 67.63,70.8C67.384,71.001 67.24,71.303 67.24,71.621C67.24,71.902 67.352,72.171 67.55,72.37L71.66,76.48C71.326,77.381 71.156,78.335 71.156,79.296C71.156,83.745 74.817,87.406 79.266,87.406C83.715,87.406 87.376,83.745 87.376,79.296C87.376,74.847 83.715,71.186 79.266,71.186C78.305,71.186 77.351,71.356 76.45,71.69L76.45,71.69ZM15,73.55C13.475,75.071 12.617,77.138 12.617,79.292C12.617,83.741 16.278,87.402 20.727,87.402C25.176,87.402 28.837,83.741 28.837,79.292C28.837,78.329 28.665,77.373 28.33,76.47L32.44,72.36C32.638,72.161 32.75,71.892 32.75,71.611C32.75,71.293 32.606,70.991 32.36,70.79C31.781,70.323 31.227,69.825 30.7,69.3C30.175,68.776 29.678,68.225 29.21,67.65C29.009,67.404 28.707,67.26 28.389,67.26C28.108,67.26 27.839,67.372 27.64,67.57L23.53,71.68C20.57,70.591 17.232,71.322 15,73.55L15,73.55ZM85,26.45C86.525,24.929 87.383,22.862 87.383,20.708C87.383,16.259 83.722,12.598 79.273,12.598C74.824,12.598 71.163,16.259 71.163,20.708C71.163,21.671 71.335,22.627 71.67,23.53L67.56,27.64C67.362,27.839 67.25,28.108 67.25,28.389C67.25,28.707 67.394,29.009 67.64,29.21C68.794,30.143 69.847,31.196 70.78,32.35C70.981,32.596 71.283,32.74 71.601,32.74C71.882,32.74 72.151,32.628 72.35,32.43L76.46,28.32C79.423,29.414 82.766,28.682 85,26.45L85,26.45Z" style="fill-rule:nonzero;"/>
</svg>
