<?xml version="1.0" encoding="UTF-8" standalone="no"?>
<!DOCTYPE svg PUBLIC "-//W3C//DTD SVG 1.1//EN" "http://www.w3.org/Graphics/SVG/1.1/DTD/svg11.dtd">
<svg width="100%" height="100%" viewBox="0 0 100 125" version="1.1" xmlns="http://www.w3.org/2000/svg" xmlns:xlink="http://www.w3.org/1999/xlink" xml:space="preserve" style="fill-rule:evenodd;clip-rule:evenodd;stroke-linejoin:round;stroke-miterlimit:1.41421;">
    <g transform="matrix(1,0,0,1,255,-347)">
        <path d="M-187,352.3C-192.6,350.1 -198.6,348.8 -205,348.8C-229.6,348.8 -249.9,367.2 -252.8,391C-253,393 -253.2,395 -253.2,397C-253.2,423.6 -231.6,445.2 -205,445.2C-178.4,445.2 -156.8,423.6 -156.8,397C-156.8,376.7 -169.3,359.4 -187,352.3ZM-203.7,416.3L-203.7,422.8C-203.7,423.8 -204.5,424.7 -205.6,424.7C-206.6,424.7 -207.5,423.9 -207.5,422.8L-207.5,416.2C-211,415.6 -214.2,413.7 -215.9,411C-216.5,410.1 -216.2,409 -215.4,408.4C-214.5,407.8 -213.4,408.1 -212.8,408.9C-211.7,410.6 -209.8,411.8 -207.5,412.4L-207.5,398.8C-213.2,397.8 -217.5,393.5 -217.5,388.4C-217.5,383.3 -213.2,379 -207.5,378L-207.5,371.4C-207.5,370.4 -206.7,369.5 -205.6,369.5C-204.6,369.5 -203.7,370.3 -203.7,371.4L-203.7,377.9C-199.7,378.2 -196,380.2 -194,383.3C-193.4,384.2 -193.7,385.3 -194.5,385.9C-195.4,386.5 -196.5,386.2 -197.1,385.4C-198.4,383.4 -200.9,382 -203.6,381.7L-203.6,395.4C-197.3,395.9 -192.4,400.5 -192.4,405.9C-192.5,411.2 -197.5,415.7 -203.7,416.3ZM-203.7,399L-203.7,412.5C-199.5,412 -196.2,409.2 -196.2,405.7C-196.3,402.3 -199.5,399.4 -203.7,399ZM-213.7,388.3C-213.7,391.4 -211.1,394 -207.5,394.9L-207.5,381.8C-211.1,382.6 -213.7,385.2 -213.7,388.3Z" style="fill-rule:nonzero;"/>
    </g>
</svg>
