<?xml version="1.0" encoding="UTF-8" standalone="no"?>
<!DOCTYPE svg PUBLIC "-//W3C//DTD SVG 1.1//EN" "http://www.w3.org/Graphics/SVG/1.1/DTD/svg11.dtd">
<svg width="100%" height="100%" viewBox="0 0 3567 2825" version="1.1" xmlns="http://www.w3.org/2000/svg" xmlns:xlink="http://www.w3.org/1999/xlink" xml:space="preserve" style="fill-rule:evenodd;clip-rule:evenodd;stroke-linejoin:round;stroke-miterlimit:1.41421;">
    <g id="ArtBoard1" transform="matrix(1.9905,0,0,1.57642,0,0)">
        <rect x="0" y="0" width="1792" height="1792" style="fill:none;"/>
        <g transform="matrix(0.502385,0,0,0.634349,290.631,615.158)">
            <path d="M1536,1399C1536,1471.67 1515.17,1534 1473.5,1586C1431.83,1638 1381.67,1664 1323,1664L469,1664C410.333,1664 360.167,1638 318.5,1586C276.833,1534 256,1471.67 256,1399C256,1342.33 258.833,1288.83 264.5,1238.5C270.167,1188.17 280.667,1137.5 296,1086.5C311.333,1035.5 330.833,991.833 354.5,955.5C378.167,919.167 409.5,889.5 448.5,866.5C487.5,843.5 532.333,832 583,832C670.333,917.333 774.667,960 896,960C1017.33,960 1121.67,917.333 1209,832C1259.67,832 1304.5,843.5 1343.5,866.5C1382.5,889.5 1413.83,919.167 1437.5,955.5C1461.17,991.833 1480.67,1035.5 1496,1086.5C1511.33,1137.5 1521.83,1188.17 1527.5,1238.5C1533.17,1288.83 1536,1342.33 1536,1399ZM1280,512C1280,618 1242.5,708.5 1167.5,783.5C1092.5,858.5 1002,896 896,896C790,896 699.5,858.5 624.5,783.5C549.5,708.5 512,618 512,512C512,406 549.5,315.5 624.5,240.5C699.5,165.5 790,128 896,128C1002,128 1092.5,165.5 1167.5,240.5C1242.5,315.5 1280,406 1280,512Z" style="fill-rule:nonzero;"/>
        </g>
        <g transform="matrix(0.502385,0,0,0.634349,0,0)">
            <path d="M1776.44,1812.24L1776.44,1963.11C1776.44,1972.44 1779.44,1980.11 1785.44,1986.11C1791.44,1992.11 1799.11,1995.11 1808.44,1995.11L2052.66,1995.11L2052.87,1995.62C2058.02,2007.86 2062.72,2020.3 2067.01,2032.88C2068.99,2038.66 2070.88,2044.47 2072.69,2050.3C2073.92,2054.27 2075.11,2058.24 2076.28,2062.22C2077.79,2067.38 2079.26,2072.56 2080.68,2077.74C2084.81,2092.76 2088.55,2107.89 2091.88,2123.11L1328.44,2123.11C1311.11,2123.11 1296.11,2116.78 1283.44,2104.11C1270.78,2091.44 1264.44,2076.44 1264.44,2059.11L1264.44,1878.41C1276.53,1884.96 1288.93,1890.91 1301.59,1896.23C1315.2,1901.95 1329.12,1906.94 1343.27,1911.18C1357.54,1915.46 1372.05,1918.98 1386.69,1921.75C1401.18,1924.49 1415.8,1926.49 1430.49,1927.81C1445.12,1929.12 1459.81,1929.75 1474.5,1929.75C1489.19,1929.75 1503.89,1929.12 1518.52,1927.81C1533.2,1926.49 1547.83,1924.49 1562.32,1921.75C1576.96,1918.98 1591.46,1915.46 1605.74,1911.18C1619.88,1906.94 1633.8,1901.95 1647.41,1896.23C1661.46,1890.33 1675.18,1883.65 1688.51,1876.25C1701.62,1868.97 1714.35,1860.99 1726.64,1852.4C1740.18,1842.94 1753.2,1832.72 1765.67,1821.89C1769.31,1818.72 1772.9,1815.51 1776.44,1812.24ZM1264.44,1078.07L1264.44,395.108C1264.44,377.775 1270.78,362.775 1283.44,350.108C1296.11,337.441 1311.11,331.108 1328.44,331.108L2608.45,331.108C2625.78,331.108 2640.78,337.441 2653.45,350.108C2666.11,362.775 2672.45,377.775 2672.45,395.108L2672.45,2059.11C2672.45,2076.44 2666.11,2091.44 2653.45,2104.11C2640.78,2116.77 2625.78,2123.11 2608.45,2123.11L2163.41,2123.11C2162.82,2120.22 2162.22,2117.32 2161.61,2114.44C2157.41,2094.6 2152.57,2074.9 2147.12,2055.36C2145.81,2050.64 2144.45,2045.93 2143.07,2041.23C2141.79,2036.89 2140.48,2032.56 2139.13,2028.24C2136.98,2021.37 2134.74,2014.53 2132.38,2007.72C2130.92,2003.5 2129.42,1999.3 2127.88,1995.11L2128.45,1995.11C2137.78,1995.11 2145.45,1992.11 2151.45,1986.11C2157.45,1980.11 2160.45,1972.44 2160.45,1963.11L2160.45,1771.11C2160.45,1761.78 2157.45,1754.11 2151.45,1748.11C2145.45,1742.11 2137.78,1739.11 2128.45,1739.11L1861.59,1739.11C1858.67,1738.5 1855.74,1737.94 1852.81,1737.41C1852.09,1737.28 1851.37,1737.15 1850.65,1737.03L1850.75,1736.88L1851.15,1736.31C1852.86,1733.83 1854.55,1731.34 1856.21,1728.83C1859.27,1724.21 1862.24,1719.53 1865.12,1714.8C1872.77,1702.24 1879.78,1689.29 1886.1,1676.01C1891.92,1663.81 1897.15,1651.33 1901.77,1638.62C1906.88,1624.59 1911.25,1610.3 1914.87,1595.82C1919.54,1577.14 1922.96,1558.17 1925.21,1539.06C1927.47,1519.8 1928.53,1500.41 1928.5,1481.02C1928.48,1467.98 1927.97,1454.94 1926.93,1441.94C1925.91,1429.13 1924.37,1416.37 1922.3,1403.68C1919.91,1389.09 1916.8,1374.61 1912.96,1360.33C1909.75,1348.36 1906.02,1336.52 1901.77,1324.87C1895.97,1308.94 1889.22,1293.35 1881.56,1278.23C1873.96,1263.23 1865.48,1248.68 1856.21,1234.66C1854.53,1232.13 1852.82,1229.61 1851.09,1227.11L1872.44,1227.11C1881.78,1227.11 1889.44,1224.11 1895.44,1218.11C1901.44,1212.11 1904.44,1204.44 1904.44,1195.11L1904.44,1131.11C1904.44,1121.78 1901.44,1114.11 1895.44,1108.11C1889.45,1102.11 1881.78,1099.11 1872.44,1099.11L1808.44,1099.11C1799.11,1099.11 1791.44,1102.11 1785.44,1108.11C1779.44,1114.11 1776.44,1121.78 1776.44,1131.11L1776.44,1142.65C1771.69,1138.36 1766.85,1134.17 1761.92,1130.07C1750.1,1120.23 1737.8,1110.96 1725.05,1102.36C1711.68,1093.33 1697.82,1085.03 1683.54,1077.54C1669.94,1070.4 1655.96,1064 1641.67,1058.37C1627.15,1052.66 1612.32,1047.75 1597.26,1043.65C1582.77,1039.7 1568.08,1036.52 1553.26,1034.07C1537.33,1031.43 1521.25,1029.65 1505.13,1028.67C1498.51,1028.27 1491.88,1028 1485.24,1027.86C1481.9,1027.79 1478.56,1027.75 1475.22,1027.75C1474.26,1027.75 1473.31,1027.75 1472.35,1027.75C1469.01,1027.77 1465.67,1027.81 1462.34,1027.89C1456.18,1028.04 1450.02,1028.3 1443.87,1028.67C1427.52,1029.66 1411.22,1031.49 1395.06,1034.18C1379.57,1036.77 1364.21,1040.16 1349.08,1044.38C1334.94,1048.33 1321,1053 1307.34,1058.37C1293.69,1063.75 1280.32,1069.83 1267.3,1076.58C1266.34,1077.08 1265.39,1077.57 1264.44,1078.07ZM1264.44,1159.49C1271.1,1155.03 1277.9,1150.79 1284.84,1146.78C1294.81,1141 1305.06,1135.7 1315.55,1130.91C1328.61,1124.95 1342.04,1119.78 1355.73,1115.43C1369.56,1111.04 1383.66,1107.5 1397.91,1104.78C1413.5,1101.8 1429.27,1099.82 1445.1,1098.74C1451.39,1098.31 1457.69,1098.02 1464,1097.87C1467.29,1097.79 1470.59,1097.76 1473.88,1097.75C1474.71,1097.75 1475.54,1097.75 1476.36,1097.75C1479.45,1097.77 1482.54,1097.81 1485.62,1097.89C1491.72,1098.04 1497.82,1098.32 1503.91,1098.74C1515.09,1099.5 1526.24,1100.71 1537.32,1102.41C1534.43,1103.84 1531.81,1105.74 1529.44,1108.11C1523.44,1114.11 1520.44,1121.78 1520.44,1131.11L1520.44,1195.11C1520.44,1204.44 1523.44,1212.11 1529.44,1218.11C1535.44,1224.11 1543.11,1227.11 1552.44,1227.11L1616.44,1227.11C1625.78,1227.11 1633.44,1224.11 1639.44,1218.11C1645.44,1212.11 1648.44,1204.44 1648.44,1195.11L1648.44,1138.19C1652.04,1140.04 1655.61,1141.95 1659.14,1143.92C1668.96,1149.4 1678.53,1155.34 1687.82,1161.69C1706.31,1174.35 1723.66,1188.64 1739.82,1204.18C1759.99,1223.58 1778.38,1244.87 1794.23,1267.95C1801.8,1278.97 1808.78,1290.4 1815.11,1302.18C1821.45,1314 1827.13,1326.17 1832.11,1338.63C1834.28,1344.07 1836.32,1349.57 1838.22,1355.11L1808.44,1355.11C1799.11,1355.11 1791.44,1358.11 1785.44,1364.11C1779.44,1370.11 1776.44,1377.78 1776.44,1387.11L1776.44,1451.11C1776.44,1460.44 1779.44,1468.11 1785.44,1474.11C1791.44,1480.11 1799.11,1483.11 1808.44,1483.11L1858.5,1483.11C1858.46,1495.08 1857.95,1507.05 1856.91,1518.97C1855.8,1531.59 1854.11,1544.16 1851.8,1556.61C1849.42,1569.38 1846.39,1582.02 1842.68,1594.46C1839.02,1606.76 1834.69,1618.87 1829.72,1630.71C1824.81,1642.38 1819.29,1653.78 1813.17,1664.87C1807.08,1675.91 1800.41,1686.63 1793.23,1696.99C1786.11,1707.26 1778.49,1717.16 1770.44,1726.7C1762.41,1736.21 1753.95,1745.35 1745.12,1754.12C1728.87,1770.29 1711.36,1785.21 1692.64,1798.45C1683.11,1805.18 1673.28,1811.49 1663.16,1817.3C1653.17,1823.04 1642.91,1828.3 1632.41,1833.06C1620.03,1838.66 1607.32,1843.56 1594.37,1847.71C1581.31,1851.9 1568,1855.34 1554.54,1858.04C1541.19,1860.72 1527.69,1862.67 1514.12,1863.93C1500.75,1865.18 1487.31,1865.77 1473.88,1865.75C1461.06,1865.73 1448.25,1865.16 1435.48,1863.99C1422.49,1862.8 1409.56,1860.98 1396.76,1858.5C1383.84,1855.99 1371.05,1852.8 1358.48,1848.92C1346.03,1845.08 1333.8,1840.56 1321.84,1835.38C1311.46,1830.88 1301.29,1825.88 1291.38,1820.42C1282.17,1815.34 1273.19,1809.86 1264.44,1804.01L1264.44,1159.49ZM1616.44,1611.11L1552.44,1611.11C1543.11,1611.11 1535.44,1614.11 1529.44,1620.11C1523.44,1626.11 1520.44,1633.78 1520.44,1643.11L1520.44,1707.11C1520.44,1716.44 1523.44,1724.11 1529.44,1730.11C1535.44,1736.11 1543.11,1739.11 1552.44,1739.11L1616.44,1739.11C1625.78,1739.11 1633.44,1736.11 1639.44,1730.11C1645.44,1724.11 1648.44,1716.44 1648.44,1707.11L1648.44,1643.11C1648.44,1633.78 1645.44,1626.11 1639.44,1620.11C1633.45,1614.11 1625.78,1611.11 1616.44,1611.11ZM2384.45,1611.11L2320.45,1611.11C2311.11,1611.11 2303.45,1614.11 2297.45,1620.11C2291.45,1626.11 2288.45,1633.78 2288.45,1643.11L2288.45,1707.11C2288.45,1716.44 2291.45,1724.11 2297.45,1730.11C2303.45,1736.11 2311.11,1739.11 2320.45,1739.11L2384.45,1739.11C2393.78,1739.11 2401.45,1736.11 2407.45,1730.11C2413.45,1724.11 2416.45,1716.44 2416.45,1707.11L2416.45,1643.11C2416.45,1633.78 2413.45,1626.11 2407.45,1620.11C2401.45,1614.11 2393.78,1611.11 2384.45,1611.11ZM1616.44,1355.11L1552.44,1355.11C1543.11,1355.11 1535.44,1358.11 1529.44,1364.11C1523.44,1370.11 1520.44,1377.78 1520.44,1387.11L1520.44,1451.11C1520.44,1460.44 1523.44,1468.11 1529.44,1474.11C1535.44,1480.11 1543.11,1483.11 1552.44,1483.11L1616.44,1483.11C1625.78,1483.11 1633.44,1480.11 1639.44,1474.11C1645.44,1468.11 1648.44,1460.44 1648.44,1451.11L1648.44,1387.11C1648.44,1377.78 1645.44,1370.11 1639.44,1364.11C1633.45,1358.11 1625.78,1355.11 1616.44,1355.11ZM2128.45,1355.11L2064.45,1355.11C2055.11,1355.11 2047.44,1358.11 2041.44,1364.11C2035.44,1370.11 2032.44,1377.78 2032.44,1387.11L2032.44,1451.11C2032.44,1460.44 2035.44,1468.11 2041.44,1474.11C2047.44,1480.11 2055.11,1483.11 2064.45,1483.11L2128.45,1483.11C2137.78,1483.11 2145.45,1480.11 2151.45,1474.11C2157.45,1468.11 2160.45,1460.44 2160.45,1451.11L2160.45,1387.11C2160.45,1377.78 2157.45,1370.11 2151.45,1364.11C2145.45,1358.11 2137.78,1355.11 2128.45,1355.11ZM2384.45,1355.11L2320.45,1355.11C2311.11,1355.11 2303.45,1358.11 2297.45,1364.11C2291.45,1370.11 2288.45,1377.78 2288.45,1387.11L2288.45,1451.11C2288.45,1460.44 2291.45,1468.11 2297.45,1474.11C2303.45,1480.11 2311.11,1483.11 2320.45,1483.11L2384.45,1483.11C2393.78,1483.11 2401.45,1480.11 2407.45,1474.11C2413.45,1468.11 2416.45,1460.44 2416.45,1451.11L2416.45,1387.11C2416.45,1377.78 2413.45,1370.11 2407.45,1364.11C2401.45,1358.11 2393.78,1355.11 2384.45,1355.11ZM2128.45,1099.11L2064.45,1099.11C2055.11,1099.11 2047.44,1102.11 2041.44,1108.11C2035.44,1114.11 2032.44,1121.78 2032.44,1131.11L2032.44,1195.11C2032.44,1204.44 2035.44,1212.11 2041.44,1218.11C2047.44,1224.11 2055.11,1227.11 2064.45,1227.11L2128.45,1227.11C2137.78,1227.11 2145.45,1224.11 2151.45,1218.11C2157.45,1212.11 2160.45,1204.44 2160.45,1195.11L2160.45,1131.11C2160.45,1121.78 2157.45,1114.11 2151.45,1108.11C2145.45,1102.11 2137.78,1099.11 2128.45,1099.11ZM2384.45,1099.11L2320.45,1099.11C2311.11,1099.11 2303.45,1102.11 2297.45,1108.11C2291.45,1114.11 2288.45,1121.78 2288.45,1131.11L2288.45,1195.11C2288.45,1204.44 2291.45,1212.11 2297.45,1218.11C2303.45,1224.11 2311.11,1227.11 2320.45,1227.11L2384.45,1227.11C2393.78,1227.11 2401.45,1224.11 2407.45,1218.11C2413.45,1212.11 2416.45,1204.44 2416.45,1195.11L2416.45,1131.11C2416.45,1121.78 2413.45,1114.11 2407.45,1108.11C2401.45,1102.11 2393.78,1099.11 2384.45,1099.11ZM1872.44,843.108L1808.44,843.108C1799.11,843.108 1791.44,846.108 1785.44,852.108C1779.44,858.108 1776.44,865.775 1776.44,875.108L1776.44,939.108C1776.44,948.441 1779.44,956.108 1785.44,962.108C1791.44,968.108 1799.11,971.108 1808.44,971.108L1872.44,971.108C1881.78,971.108 1889.44,968.108 1895.44,962.108C1901.44,956.108 1904.44,948.441 1904.44,939.108L1904.44,875.108C1904.44,865.775 1901.44,858.108 1895.44,852.108C1889.45,846.108 1881.78,843.108 1872.44,843.108ZM1616.44,843.108L1552.44,843.108C1543.11,843.108 1535.44,846.108 1529.44,852.108C1523.44,858.108 1520.44,865.775 1520.44,875.108L1520.44,939.108C1520.44,948.441 1523.44,956.108 1529.44,962.108C1535.44,968.108 1543.11,971.108 1552.44,971.108L1616.44,971.108C1625.78,971.108 1633.44,968.108 1639.44,962.108C1645.44,956.108 1648.44,948.441 1648.44,939.108L1648.44,875.108C1648.44,865.775 1645.44,858.108 1639.44,852.108C1633.45,846.108 1625.78,843.108 1616.44,843.108ZM2128.45,843.108L2064.45,843.108C2055.11,843.108 2047.44,846.108 2041.44,852.108C2035.44,858.108 2032.44,865.775 2032.44,875.108L2032.44,939.108C2032.44,948.441 2035.44,956.108 2041.44,962.108C2047.44,968.108 2055.11,971.108 2064.45,971.108L2128.45,971.108C2137.78,971.108 2145.45,968.108 2151.45,962.108C2157.45,956.108 2160.45,948.441 2160.45,939.108L2160.45,875.108C2160.45,865.775 2157.45,858.108 2151.45,852.108C2145.45,846.108 2137.78,843.108 2128.45,843.108ZM2384.45,843.108L2320.45,843.108C2311.11,843.108 2303.45,846.108 2297.45,852.108C2291.45,858.108 2288.45,865.775 2288.45,875.108L2288.45,939.108C2288.45,948.441 2291.45,956.108 2297.45,962.108C2303.45,968.108 2311.11,971.108 2320.45,971.108L2384.45,971.108C2393.78,971.108 2401.45,968.108 2407.45,962.108C2413.45,956.108 2416.45,948.441 2416.45,939.108L2416.45,875.108C2416.45,865.775 2413.45,858.108 2407.45,852.108C2401.45,846.108 2393.78,843.108 2384.45,843.108ZM1872.44,587.108L1808.44,587.108C1799.11,587.108 1791.44,590.108 1785.44,596.108C1779.44,602.108 1776.44,609.775 1776.44,619.108L1776.44,683.108C1776.44,692.441 1779.44,700.108 1785.44,706.108C1791.44,712.108 1799.11,715.108 1808.44,715.108L1872.44,715.108C1881.78,715.108 1889.44,712.108 1895.44,706.108C1901.44,700.108 1904.44,692.441 1904.44,683.108L1904.44,619.108C1904.44,609.775 1901.44,602.108 1895.44,596.108C1889.45,590.108 1881.78,587.108 1872.44,587.108ZM1616.44,587.108L1552.44,587.108C1543.11,587.108 1535.44,590.108 1529.44,596.108C1523.44,602.108 1520.44,609.775 1520.44,619.108L1520.44,683.108C1520.44,692.441 1523.44,700.108 1529.44,706.108C1535.44,712.108 1543.11,715.108 1552.44,715.108L1616.44,715.108C1625.78,715.108 1633.44,712.108 1639.44,706.108C1645.44,700.108 1648.44,692.441 1648.44,683.108L1648.44,619.108C1648.44,609.775 1645.44,602.108 1639.44,596.108C1633.45,590.108 1625.78,587.108 1616.44,587.108ZM2128.45,587.108L2064.45,587.108C2055.11,587.108 2047.44,590.108 2041.44,596.108C2035.44,602.108 2032.44,609.775 2032.44,619.108L2032.44,683.108C2032.44,692.441 2035.44,700.108 2041.44,706.108C2047.44,712.108 2055.11,715.108 2064.45,715.108L2128.45,715.108C2137.78,715.108 2145.45,712.108 2151.45,706.108C2157.45,700.108 2160.45,692.441 2160.45,683.108L2160.45,619.108C2160.45,609.775 2157.45,602.108 2151.45,596.108C2145.45,590.108 2137.78,587.108 2128.45,587.108ZM2384.45,587.108L2320.45,587.108C2311.11,587.108 2303.45,590.108 2297.45,596.108C2291.45,602.108 2288.45,609.775 2288.45,619.108L2288.45,683.108C2288.45,692.441 2291.45,700.108 2297.45,706.108C2303.45,712.108 2311.11,715.108 2320.45,715.108L2384.45,715.108C2393.78,715.108 2401.45,712.108 2407.45,706.108C2413.45,700.108 2416.45,692.441 2416.45,683.108L2416.45,619.108C2416.45,609.775 2413.45,602.108 2407.45,596.108C2401.45,590.108 2393.78,587.108 2384.45,587.108Z"/>
        </g>
    </g>
</svg>
