<?xml version="1.0" encoding="UTF-8" standalone="no"?>
<!DOCTYPE svg PUBLIC "-//W3C//DTD SVG 1.1//EN" "http://www.w3.org/Graphics/SVG/1.1/DTD/svg11.dtd">
<svg width="100%" height="100%" viewBox="0 0 100 125" version="1.1" xmlns="http://www.w3.org/2000/svg" xmlns:xlink="http://www.w3.org/1999/xlink" xml:space="preserve" style="fill-rule:evenodd;clip-rule:evenodd;stroke-linejoin:round;stroke-miterlimit:1.41421;">
    <path d="M37,76.68C44.368,76.698 51.503,74.071 57.1,69.28L63.88,76.06L61.38,78.56C60.91,79.029 60.646,79.666 60.646,80.33C60.646,80.994 60.91,81.631 61.38,82.1L75.38,96.1C76.938,97.66 79.055,98.538 81.26,98.538C83.465,98.538 85.582,97.66 87.14,96.1L87.45,95.79C90.673,92.563 90.673,87.257 87.45,84.03L73.45,70.03C72.981,69.56 72.344,69.296 71.68,69.296C71.016,69.296 70.379,69.56 69.91,70.03L67.41,72.53L60.63,65.75C65.389,60.148 68.004,53.031 68.004,45.68C68.004,28.674 54.01,14.68 37.004,14.68C19.998,14.68 6.004,28.674 6.004,45.68C6.004,62.685 19.995,76.678 37,76.68L37,76.68ZM71.68,75.33L83.91,87.58C85.194,88.867 85.194,90.983 83.91,92.27L83.6,92.58C82.297,93.828 80.213,93.828 78.91,92.58L66.66,80.33L71.68,75.33ZM18.58,27.25C23.452,22.388 30.061,19.655 36.945,19.655C51.208,19.655 62.945,31.392 62.945,45.655C62.945,59.918 51.208,71.655 36.945,71.655C30.061,71.655 23.452,68.922 18.58,64.06C13.659,59.203 10.886,52.569 10.886,45.655C10.886,38.741 13.659,32.107 18.58,27.25L18.58,27.25ZM37,44.46C42.199,44.395 46.44,40.1 46.44,34.901C46.44,29.656 42.124,25.341 36.88,25.341C31.636,25.341 27.32,29.656 27.32,34.9C27.358,40.175 31.725,44.488 37,44.46L37,44.46ZM37,30.35C39.455,30.415 41.44,32.452 41.44,34.908C41.44,37.41 39.382,39.468 36.88,39.468C34.379,39.468 32.321,37.411 32.32,34.91C32.347,32.394 34.424,30.34 36.94,30.34C36.96,30.34 36.98,30.34 37,30.34L37,30.35ZM20.21,59L20.21,53.89C20.243,49.092 24.212,45.168 29.01,45.19L31.29,45.19C31.93,45.199 32.542,45.453 33,45.9L37,49.78L40.94,45.9C41.406,45.44 42.035,45.181 42.69,45.18L45,45.18C49.798,45.158 53.767,49.082 53.8,53.88L53.8,59C53.8,60.371 52.671,61.5 51.3,61.5C49.929,61.5 48.8,60.371 48.8,59L48.8,53.89C48.767,51.835 47.055,50.168 45,50.19L43.71,50.19L39.43,54.4C38.08,55.713 35.9,55.713 34.55,54.4L30.27,50.19L29,50.19C26.945,50.168 25.233,51.835 25.2,53.89L25.2,59C25.2,60.371 24.071,61.5 22.7,61.5C21.329,61.5 20.2,60.371 20.2,59L20.21,59ZM14,15.46C15.371,15.46 16.5,14.331 16.5,12.96L16.5,9.77C16.505,7.956 17.996,6.465 19.81,6.46L66.57,6.46L66.57,21.15C66.575,25.405 70.075,28.905 74.33,28.91L89,28.91L89,77.46C89,78.831 90.129,79.96 91.5,79.96C92.871,79.96 94,78.831 94,77.46L94,26.41C94.001,25.747 93.738,25.11 93.27,24.64L70.84,2.19C70.37,1.722 69.733,1.459 69.07,1.46L19.81,1.46C15.253,1.465 11.505,5.213 11.5,9.77L11.5,13C11.522,14.356 12.644,15.46 14,15.46ZM71.57,10L85.49,23.91L74.34,23.91C72.828,23.905 71.585,22.662 71.58,21.15L71.57,10ZM16.49,77.46L16.49,88.46C16.495,90.274 17.986,91.765 19.8,91.77L62,91.77C63.371,91.77 64.5,92.899 64.5,94.27C64.5,95.641 63.371,96.77 62,96.77L19.81,96.77C15.253,96.765 11.505,93.017 11.5,88.46L11.5,77.46C11.5,76.089 12.629,74.96 14,74.96C15.371,74.96 16.5,76.089 16.5,77.46L16.49,77.46Z" style="fill-rule:nonzero;"/>
</svg>
