<?xml version="1.0" encoding="utf-8"?>
<!-- Generator: Adobe Illustrator 22.0.1, SVG Export Plug-In . SVG Version: 6.00 Build 0)  -->
<!DOCTYPE svg PUBLIC "-//W3C//DTD SVG 1.1//EN" "http://www.w3.org/Graphics/SVG/1.1/DTD/svg11.dtd">
<svg version="1.1" id="Layer_1" xmlns="http://www.w3.org/2000/svg" xmlns:xlink="http://www.w3.org/1999/xlink" x="0px" y="0px"
	 viewBox="0 0 231 64" style="enable-background:new 0 0 231 64;" xml:space="preserve">
<style type="text/css">
	.st0{fill:#FAA21B;}
</style>
<path class="st0" d="M74.4,20.3h11.3l3.6,5.4h-2v18.6h-5.8V25.7h-7.1V20.3z M147.5,34.9h11v-5.3h-11v-4H160v-5.3h-18.3v24h18.5V39
	h-12.7V34.9z M162.2,44.4h5.8v-9h11.1V30H168v-4.3h12.6v-5.4h-18.5L162.2,44.4L162.2,44.4z M217.6,39.1v-4.2h11v-5.3h-11v-4h12.5
	v-5.3h-18.3v24h18.5V39L217.6,39.1L217.6,39.1z M104.8,35.8c3.1-1.3,4.8-3.9,4.8-7.5c0-5-3.5-8.1-9.2-8.1h-11h-1.8l11.1,16.6l0,0
	l5,7.5h6.8L104.8,35.8z M100.2,31.6h-2.8l-6.1-6h8.8c1.4,0,3.7,0.4,3.7,3.1C103.7,30.5,102.4,31.6,100.2,31.6z M204,35.8
	c3.1-1.3,4.8-3.9,4.8-7.5c0-5-3.5-8.1-9.2-8.1h-11h-1.8l11.1,16.6l0,0l5,7.5h6.8L204,35.8z M199.3,31.6h-2.8l-6-6h8.7
	c1.4,0,3.7,0.4,3.7,3.1C202.9,30.5,201.6,31.6,199.3,31.6z M114.7,20.3h-2v24h5.8l-0.1-18.5L114.7,20.3z M184.8,20.3L184.8,20.3
	h-2.1v24h5.8V25.8L184.8,20.3z M135.7,31.7c1.8-1.2,2.7-2.8,2.7-5c0-3.9-3.2-6.4-8.1-6.4h-13.7l9.6,14.4h4.1c2.3,0,3.5,0.7,3.5,2.3
	c0,1.5-1.1,2.2-3.3,2.2h-1.3l3.4,5.1c4.5-0.5,7-2.9,7-6.7C139.7,34.8,138.5,33,135.7,31.7z M129.2,29.7H125l-4.8-4.2h9.4
	c1.1,0,3,0.3,3,2.1C132.6,29,131.5,29.7,129.2,29.7z M64.1,32.1C64.1,48.8,51.3,62.5,35,64l-6-6c1,0.1,2,0.2,3,0.2s2-0.1,3-0.2
	c13-1.5,23.1-12.5,23.1-25.9C58.2,17.7,46.5,6,32.1,6S6,17.7,6,32.1C6,45.4,16.1,56.5,29.1,58v6C12.8,62.5,0,48.7,0,32.1
	C0,14.4,14.4,0,32.1,0S64.1,14.4,64.1,32.1z M47,30.3H32.5l-5.6-5.6h21.8V18H15.5v6.7H27v26.7h6.7V36.9h13.5L47,30.3z"/>
</svg>
