<?xml version="1.0" encoding="UTF-8" standalone="no"?>
<!DOCTYPE svg PUBLIC "-//W3C//DTD SVG 1.1//EN" "http://www.w3.org/Graphics/SVG/1.1/DTD/svg11.dtd">
<svg width="100%" height="100%" viewBox="0 0 100 125" version="1.1" xmlns="http://www.w3.org/2000/svg" xmlns:xlink="http://www.w3.org/1999/xlink" xml:space="preserve" style="fill-rule:evenodd;clip-rule:evenodd;stroke-linejoin:round;stroke-miterlimit:1.41421;">
    <path d="M25.844,32C25.722,32.02 25.606,32.063 25.5,32.125L8.5,42.125C8.188,42.305 7.997,42.64 8,43L8,48C8,48.549 8.451,49 9,49L11,49L11,61L9,61C8.451,61 8,61.451 8,62L8,67C8,67.549 8.451,68 9,68L43,68C43.549,68 44,67.549 44,67L44,62C44,61.451 43.549,61 43,61L41,61L41,60C41,59.995 41,59.991 41,59.986C41,59.437 40.549,58.986 40,58.986C39.451,58.986 39,59.437 39,59.986C39,59.991 39,59.995 39,60L39,62C39,62.549 39.451,63 40,63L42,63L42,66L10,66L10,63L12,63C12.549,63 13,62.549 13,62L13,48C13,47.451 12.549,47 12,47L10,47L10,43.563L26,34.125L42,43.563L42,47L40,47C39.451,47 39,47.451 39,48L39,54C39,54.549 39.451,55 40,55L52.563,55L50.281,57.281C50.1,57.469 49.999,57.719 49.999,57.98C49.999,58.532 50.453,58.986 51.004,58.986C51.272,58.986 51.53,58.878 51.719,58.688L55.719,54.688C56.101,54.3 56.101,53.668 55.719,53.281L51.719,49.281C51.503,49.049 51.19,48.933 50.875,48.969C50.365,49.018 49.972,49.452 49.972,49.964C49.972,50.237 50.084,50.499 50.281,50.688L52.563,53L41,53L41,49L43,49C43.549,49 44,48.549 44,48L44,43C44.003,42.64 43.812,42.305 43.5,42.125L26.5,32.125C26.302,32.009 26.07,31.965 25.844,32L25.844,32ZM73.844,32C73.722,32.02 73.606,32.063 73.5,32.125L56.5,42.125C56.188,42.305 55.997,42.64 56,43L56,48C56,48.549 56.451,49 57,49L59,49L59,61L57,61C56.451,61 56,61.451 56,62L56,67C56,67.549 56.451,68 57,68L91,68C91.549,68 92,67.549 92,67L92,62C92,61.451 91.549,61 91,61L89,61L89,49L91,49C91.549,49 92,48.549 92,48L92,43C92.003,42.64 91.812,42.305 91.5,42.125L74.5,32.125C74.302,32.009 74.07,31.965 73.844,32L73.844,32ZM74,34.125L90,43.563L90,47L88,47C87.451,47 87,47.451 87,48L87,62C87,62.549 87.451,63 88,63L90,63L90,66L58,66L58,63L60,63C60.549,63 61,62.549 61,62L61,48C61,47.451 60.549,47 60,47L58,47L58,43.563L74,34.125ZM25.875,39.969C25.363,40.033 24.98,40.484 25,41L25,42.063C24.15,42.136 23.202,42.312 22.313,42.813C21.053,43.52 20,44.98 20,47C20,49.467 21.574,51.068 23,51.906C23.761,52.353 24.466,52.593 25,52.75L25,59.938C24.027,59.784 23.159,59.409 22.469,59C21.549,58.455 20.952,57.663 20.938,57.625C20.788,57.24 20.415,56.984 20.002,56.984C19.451,56.984 18.997,57.438 18.997,57.988C18.997,58.11 19.02,58.23 19.063,58.344C19.422,59.305 20.249,60.014 21.438,60.719C22.399,61.289 23.617,61.773 25,61.938L25,63C25,63.005 25,63.009 25,63.014C25,63.563 25.451,64.014 26,64.014C26.549,64.014 27,63.563 27,63.014C27,63.009 27,63.005 27,63L27,61.938C27.85,61.855 28.798,61.656 29.688,61.156C30.947,60.448 32,59.02 32,57C32,54.533 30.426,52.9 29,52.063C28.233,51.612 27.534,51.344 27,51.188L27,44.094C27.973,44.238 28.841,44.56 29.531,44.969C30.451,45.514 31.048,46.306 31.063,46.344C31.211,46.731 31.585,46.988 32,46.988C32.551,46.988 33.004,46.535 33.004,45.984C33.004,45.862 32.981,45.74 32.938,45.625C32.578,44.663 31.751,43.955 30.563,43.25C29.6,42.679 28.384,42.219 27,42.063L27,41C27.001,40.987 27.001,40.974 27.001,40.961C27.001,40.412 26.549,39.961 26.001,39.961C25.959,39.961 25.917,39.963 25.875,39.969ZM73.875,39.969C73.363,40.033 72.98,40.484 73,41L73,42.063C72.15,42.136 71.202,42.312 70.313,42.813C69.053,43.52 68,44.98 68,47C68,49.467 69.574,51.068 71,51.906C71.761,52.353 72.466,52.593 73,52.75L73,59.938C72.027,59.784 71.159,59.409 70.469,59C69.549,58.455 68.952,57.663 68.938,57.625C68.788,57.24 68.415,56.984 68.002,56.984C67.451,56.984 66.997,57.438 66.997,57.988C66.997,58.11 67.02,58.23 67.063,58.344C67.422,59.305 68.249,60.014 69.438,60.719C70.399,61.289 71.617,61.773 73,61.938L73,63C73,63.005 73,63.009 73,63.014C73,63.563 73.451,64.014 74,64.014C74.549,64.014 75,63.563 75,63.014C75,63.009 75,63.005 75,63L75,61.938C75.85,61.855 76.798,61.656 77.688,61.156C78.947,60.448 80,59.02 80,57C80,54.533 78.426,52.9 77,52.063C76.233,51.612 75.534,51.344 75,51.188L75,44.094C75.973,44.238 76.841,44.56 77.531,44.969C78.451,45.514 79.048,46.306 79.063,46.344C79.211,46.731 79.585,46.988 80,46.988C80.551,46.988 81.004,46.535 81.004,45.984C81.004,45.862 80.981,45.74 80.938,45.625C80.578,44.663 79.751,43.955 78.563,43.25C77.6,42.679 76.384,42.219 75,42.063L75,41C75.001,40.987 75.001,40.974 75.001,40.961C75.001,40.412 74.549,39.961 74.001,39.961C73.959,39.961 73.917,39.963 73.875,39.969ZM25,44.063L25,50.656C24.682,50.537 24.349,50.392 24,50.188C22.926,49.557 22,48.659 22,47C22,45.587 22.509,44.996 23.281,44.563C23.768,44.289 24.397,44.138 25,44.063ZM73,44.063L73,50.656C72.682,50.537 72.349,50.392 72,50.188C70.926,49.557 70,48.659 70,47C70,45.587 70.509,44.996 71.281,44.563C71.768,44.289 72.397,44.138 73,44.063ZM27,53.344C27.319,53.468 27.649,53.606 28,53.813C29.074,54.443 30,55.341 30,57C30,58.413 29.491,58.972 28.719,59.406C28.232,59.68 27.603,59.853 27,59.938L27,53.344ZM75,53.344C75.319,53.468 75.649,53.606 76,53.813C77.074,54.443 78,55.341 78,57C78,58.413 77.491,58.972 76.719,59.406C76.232,59.68 75.603,59.853 75,59.938L75,53.344Z" style="fill-rule:nonzero;"/>
</svg>
