<?xml version="1.0" encoding="utf-8"?>
<!-- Generator: Adobe Illustrator 18.1.1, SVG Export Plug-In . SVG Version: 6.00 Build 0)  -->
<!DOCTYPE svg PUBLIC "-//W3C//DTD SVG 1.1//EN" "http://www.w3.org/Graphics/SVG/1.1/DTD/svg11.dtd">
<svg version="1.1" id="Ebene_1" xmlns="http://www.w3.org/2000/svg" xmlns:xlink="http://www.w3.org/1999/xlink" x="0px" y="0px"
	 viewBox="0 0 200 80" enable-background="new 0 0 200 80" xml:space="preserve">
<g>
	<path fill="#1D1D1B" d="M70.8,55.7l-0.8-2h-2.6l-0.8,2h-0.7l2.5-6.4h0.6l2.5,6.4H70.8z M69.8,53L69,51c-0.1-0.2-0.2-0.6-0.3-0.9
		c-0.1,0.3-0.2,0.6-0.3,0.9l-0.7,2H69.8z"/>
	<path fill="#1D1D1B" d="M76.2,50.9v0.5l-0.9,0.1c0.1,0.1,0.2,0.2,0.2,0.4s0.1,0.3,0.1,0.6c0,0.5-0.2,0.8-0.5,1.1
		c-0.3,0.3-0.8,0.4-1.3,0.4c-0.1,0-0.3,0-0.4,0c-0.3,0.2-0.5,0.4-0.5,0.6c0,0.1,0.1,0.2,0.2,0.3c0.1,0.1,0.3,0.1,0.6,0.1h0.8
		c0.5,0,0.9,0.1,1.2,0.3s0.4,0.5,0.4,1c0,0.5-0.2,0.9-0.6,1.2c-0.4,0.3-1,0.4-1.9,0.4c-0.6,0-1.1-0.1-1.4-0.3
		c-0.3-0.2-0.5-0.6-0.5-1c0-0.3,0.1-0.5,0.3-0.8s0.4-0.4,0.8-0.4c-0.1-0.1-0.2-0.1-0.3-0.3c-0.1-0.1-0.1-0.3-0.1-0.4
		c0-0.2,0-0.3,0.1-0.5c0.1-0.1,0.2-0.3,0.4-0.4c-0.2-0.1-0.4-0.3-0.6-0.5c-0.2-0.2-0.2-0.5-0.2-0.8c0-0.5,0.2-0.9,0.5-1.2
		s0.8-0.4,1.3-0.4c0.2,0,0.5,0,0.7,0.1H76.2z M72.4,56.5c0,0.3,0.1,0.5,0.3,0.6s0.5,0.2,0.9,0.2c0.6,0,1.1-0.1,1.3-0.3
		c0.3-0.2,0.4-0.4,0.4-0.7c0-0.3-0.1-0.4-0.2-0.5c-0.2-0.1-0.5-0.2-0.9-0.2h-0.9c-0.3,0-0.6,0.1-0.8,0.2
		C72.5,55.9,72.4,56.2,72.4,56.5z M72.8,52.4c0,0.3,0.1,0.6,0.3,0.8c0.2,0.2,0.5,0.3,0.8,0.3c0.7,0,1.1-0.3,1.1-1
		c0-0.7-0.4-1.1-1.1-1.1c-0.3,0-0.6,0.1-0.8,0.3S72.8,52.1,72.8,52.4z"/>
	<path fill="#1D1D1B" d="M77.2,49.6c0-0.2,0-0.3,0.1-0.4c0.1-0.1,0.2-0.1,0.3-0.1c0.1,0,0.2,0,0.3,0.1c0.1,0.1,0.1,0.2,0.1,0.4
		c0,0.2,0,0.3-0.1,0.4c-0.1,0.1-0.2,0.1-0.3,0.1c-0.1,0-0.2,0-0.3-0.1C77.2,49.9,77.2,49.8,77.2,49.6z M77.9,55.7h-0.7v-4.8h0.7
		V55.7z"/>
	<path fill="#1D1D1B" d="M80.2,55.7h-0.7v-6.8h0.7V55.7z"/>
	<path fill="#1D1D1B" d="M83.7,55.7c-0.7,0-1.3-0.2-1.7-0.6c-0.4-0.4-0.6-1-0.6-1.8c0-0.8,0.2-1.4,0.6-1.8c0.4-0.5,0.9-0.7,1.5-0.7
		c0.6,0,1.1,0.2,1.4,0.6s0.5,0.9,0.5,1.6v0.5h-3.3c0,0.6,0.2,1,0.4,1.3c0.3,0.3,0.6,0.4,1.1,0.4c0.5,0,1-0.1,1.5-0.3v0.6
		c-0.3,0.1-0.5,0.2-0.7,0.2C84.3,55.7,84.1,55.7,83.7,55.7z M83.6,51.4c-0.4,0-0.7,0.1-0.9,0.4s-0.4,0.6-0.4,1h2.5
		c0-0.5-0.1-0.8-0.3-1C84.2,51.5,83.9,51.4,83.6,51.4z"/>
	<path fill="#1D1D1B" d="M94.2,52.4c0,1.1-0.3,1.9-0.9,2.4c-0.6,0.6-1.4,0.8-2.5,0.8h-1.8v-6.4h2c1,0,1.8,0.3,2.3,0.8
		C94,50.7,94.2,51.4,94.2,52.4z M93.5,52.4c0-0.8-0.2-1.5-0.6-1.9c-0.4-0.4-1-0.6-1.9-0.6h-1.1V55h0.9c0.9,0,1.5-0.2,2-0.7
		C93.2,53.9,93.5,53.3,93.5,52.4z"/>
	<path fill="#1D1D1B" d="M98.5,55.7L98.4,55h0c-0.2,0.3-0.5,0.5-0.7,0.6c-0.2,0.1-0.5,0.2-0.9,0.2c-0.5,0-0.8-0.1-1.1-0.4
		c-0.3-0.2-0.4-0.6-0.4-1c0-1,0.8-1.5,2.3-1.5l0.8,0v-0.3c0-0.4-0.1-0.7-0.2-0.8c-0.2-0.2-0.4-0.3-0.8-0.3c-0.4,0-0.8,0.1-1.4,0.4
		l-0.2-0.6c0.2-0.1,0.5-0.2,0.8-0.3c0.3-0.1,0.6-0.1,0.8-0.1c0.6,0,1,0.1,1.3,0.4s0.4,0.7,0.4,1.2v3.3H98.5z M96.9,55.1
		c0.5,0,0.8-0.1,1.1-0.4c0.3-0.2,0.4-0.6,0.4-1v-0.4l-0.7,0c-0.6,0-1,0.1-1.2,0.3S96,54,96,54.3c0,0.3,0.1,0.5,0.2,0.6
		C96.4,55.1,96.6,55.1,96.9,55.1z"/>
	<path fill="#1D1D1B" d="M102.1,55.1c0.1,0,0.3,0,0.4,0c0.1,0,0.2,0,0.3-0.1v0.6c-0.1,0-0.2,0.1-0.3,0.1c-0.2,0-0.3,0-0.4,0
		c-0.9,0-1.4-0.5-1.4-1.5v-2.8h-0.7v-0.3l0.7-0.3l0.3-1h0.4v1.1h1.4v0.6h-1.4v2.8c0,0.3,0.1,0.5,0.2,0.7
		C101.6,55.1,101.8,55.1,102.1,55.1z"/>
	<path fill="#1D1D1B" d="M106.6,55.7l-0.1-0.7h0c-0.2,0.3-0.5,0.5-0.7,0.6c-0.2,0.1-0.5,0.2-0.9,0.2c-0.5,0-0.8-0.1-1.1-0.4
		c-0.3-0.2-0.4-0.6-0.4-1c0-1,0.8-1.5,2.3-1.5l0.8,0v-0.3c0-0.4-0.1-0.7-0.2-0.8c-0.2-0.2-0.4-0.3-0.8-0.3c-0.4,0-0.8,0.1-1.4,0.4
		l-0.2-0.6c0.2-0.1,0.5-0.2,0.8-0.3c0.3-0.1,0.6-0.1,0.8-0.1c0.6,0,1,0.1,1.3,0.4s0.4,0.7,0.4,1.2v3.3H106.6z M105,55.1
		c0.5,0,0.8-0.1,1.1-0.4c0.3-0.2,0.4-0.6,0.4-1v-0.4l-0.7,0c-0.6,0-1,0.1-1.2,0.3s-0.4,0.4-0.4,0.7c0,0.3,0.1,0.5,0.2,0.6
		C104.5,55.1,104.7,55.1,105,55.1z"/>
	<path fill="#1D1D1B" d="M111.1,55.7v-6.4h0.7v6.4H111.1z"/>
	<path fill="#1D1D1B" d="M116.7,55.7v-3.1c0-0.4-0.1-0.7-0.3-0.9c-0.2-0.2-0.5-0.3-0.8-0.3c-0.5,0-0.9,0.1-1.1,0.4s-0.3,0.7-0.3,1.3
		v2.5h-0.7v-4.8h0.6l0.1,0.7h0c0.1-0.2,0.4-0.4,0.6-0.5c0.3-0.1,0.6-0.2,0.9-0.2c0.6,0,1,0.1,1.3,0.4c0.3,0.3,0.4,0.7,0.4,1.3v3.1
		H116.7z"/>
	<path fill="#1D1D1B" d="M122.2,55.7v-3.1c0-0.4-0.1-0.7-0.3-0.9c-0.2-0.2-0.5-0.3-0.8-0.3c-0.5,0-0.9,0.1-1.1,0.4s-0.3,0.7-0.3,1.3
		v2.5h-0.7v-4.8h0.6l0.1,0.7h0c0.1-0.2,0.4-0.4,0.6-0.5c0.3-0.1,0.6-0.2,0.9-0.2c0.6,0,1,0.1,1.3,0.4c0.3,0.3,0.4,0.7,0.4,1.3v3.1
		H122.2z"/>
	<path fill="#1D1D1B" d="M128.5,53.3c0,0.8-0.2,1.4-0.6,1.8c-0.4,0.4-0.9,0.7-1.6,0.7c-0.4,0-0.8-0.1-1.1-0.3
		c-0.3-0.2-0.6-0.5-0.8-0.9s-0.3-0.8-0.3-1.3c0-0.8,0.2-1.4,0.6-1.8s0.9-0.7,1.6-0.7c0.7,0,1.2,0.2,1.6,0.7
		C128.3,51.9,128.5,52.5,128.5,53.3z M124.9,53.3c0,0.6,0.1,1.1,0.4,1.4c0.2,0.3,0.6,0.5,1.1,0.5c0.5,0,0.8-0.2,1.1-0.5
		c0.2-0.3,0.4-0.8,0.4-1.4c0-0.6-0.1-1.1-0.4-1.4c-0.2-0.3-0.6-0.5-1.1-0.5c-0.5,0-0.8,0.2-1.1,0.5C125,52.2,124.9,52.6,124.9,53.3z
		"/>
	<path fill="#1D1D1B" d="M130.8,55.7l-1.8-4.8h0.8l1,2.8c0.2,0.7,0.4,1.1,0.4,1.3h0c0-0.2,0.1-0.5,0.3-1c0.2-0.5,0.6-1.5,1.1-3.2
		h0.8l-1.8,4.8H130.8z"/>
	<path fill="#1D1D1B" d="M137.2,55.7L137,55h0c-0.2,0.3-0.5,0.5-0.7,0.6c-0.2,0.1-0.5,0.2-0.9,0.2c-0.5,0-0.8-0.1-1.1-0.4
		c-0.3-0.2-0.4-0.6-0.4-1c0-1,0.8-1.5,2.3-1.5l0.8,0v-0.3c0-0.4-0.1-0.7-0.2-0.8c-0.2-0.2-0.4-0.3-0.8-0.3c-0.4,0-0.8,0.1-1.4,0.4
		l-0.2-0.6c0.2-0.1,0.5-0.2,0.8-0.3c0.3-0.1,0.6-0.1,0.8-0.1c0.6,0,1,0.1,1.3,0.4s0.4,0.7,0.4,1.2v3.3H137.2z M135.6,55.1
		c0.5,0,0.8-0.1,1.1-0.4c0.3-0.2,0.4-0.6,0.4-1v-0.4l-0.7,0c-0.6,0-1,0.1-1.2,0.3s-0.4,0.4-0.4,0.7c0,0.3,0.1,0.5,0.2,0.6
		C135,55.1,135.3,55.1,135.6,55.1z"/>
	<path fill="#1D1D1B" d="M140.8,55.1c0.1,0,0.3,0,0.4,0c0.1,0,0.2,0,0.3-0.1v0.6c-0.1,0-0.2,0.1-0.3,0.1c-0.2,0-0.3,0-0.4,0
		c-0.9,0-1.4-0.5-1.4-1.5v-2.8h-0.7v-0.3l0.7-0.3l0.3-1h0.4v1.1h1.4v0.6H140v2.8c0,0.3,0.1,0.5,0.2,0.7
		C140.3,55.1,140.5,55.1,140.8,55.1z"/>
	<path fill="#1D1D1B" d="M142.3,49.6c0-0.2,0-0.3,0.1-0.4c0.1-0.1,0.2-0.1,0.3-0.1c0.1,0,0.2,0,0.3,0.1c0.1,0.1,0.1,0.2,0.1,0.4
		c0,0.2,0,0.3-0.1,0.4c-0.1,0.1-0.2,0.1-0.3,0.1c-0.1,0-0.2,0-0.3-0.1C142.3,49.9,142.3,49.8,142.3,49.6z M143.1,55.7h-0.7v-4.8h0.7
		V55.7z"/>
	<path fill="#1D1D1B" d="M148.7,53.3c0,0.8-0.2,1.4-0.6,1.8c-0.4,0.4-0.9,0.7-1.6,0.7c-0.4,0-0.8-0.1-1.1-0.3
		c-0.3-0.2-0.6-0.5-0.8-0.9s-0.3-0.8-0.3-1.3c0-0.8,0.2-1.4,0.6-1.8s0.9-0.7,1.6-0.7c0.7,0,1.2,0.2,1.6,0.7S148.7,52.5,148.7,53.3z
		 M145.1,53.3c0,0.6,0.1,1.1,0.4,1.4c0.2,0.3,0.6,0.5,1.1,0.5c0.5,0,0.8-0.2,1.1-0.5c0.2-0.3,0.4-0.8,0.4-1.4c0-0.6-0.1-1.1-0.4-1.4
		c-0.2-0.3-0.6-0.5-1.1-0.5c-0.5,0-0.8,0.2-1.1,0.5C145.2,52.2,145.1,52.6,145.1,53.3z"/>
	<path fill="#1D1D1B" d="M153.3,55.7v-3.1c0-0.4-0.1-0.7-0.3-0.9c-0.2-0.2-0.5-0.3-0.8-0.3c-0.5,0-0.9,0.1-1.1,0.4s-0.3,0.7-0.3,1.3
		v2.5H150v-4.8h0.6l0.1,0.7h0c0.1-0.2,0.4-0.4,0.6-0.5c0.3-0.1,0.6-0.2,0.9-0.2c0.6,0,1,0.1,1.3,0.4c0.3,0.3,0.4,0.7,0.4,1.3v3.1
		H153.3z"/>
	<path fill="#1D1D1B" d="M162,51.1c0,0.6-0.2,1.1-0.7,1.5c-0.4,0.3-1.1,0.5-1.9,0.5h-0.7v2.5h-0.7v-6.4h1.7
		C161.2,49.3,162,49.9,162,51.1z M158.7,52.5h0.7c0.7,0,1.1-0.1,1.4-0.3s0.4-0.6,0.4-1c0-0.4-0.1-0.7-0.4-0.9s-0.7-0.3-1.3-0.3h-0.8
		V52.5z"/>
	<path fill="#1D1D1B" d="M163.9,55.7h-0.7v-6.8h0.7V55.7z"/>
	<path fill="#1D1D1B" d="M168.4,55.7l-0.1-0.7h0c-0.2,0.3-0.5,0.5-0.7,0.6c-0.2,0.1-0.5,0.2-0.9,0.2c-0.5,0-0.8-0.1-1.1-0.4
		c-0.3-0.2-0.4-0.6-0.4-1c0-1,0.8-1.5,2.3-1.5l0.8,0v-0.3c0-0.4-0.1-0.7-0.2-0.8c-0.2-0.2-0.4-0.3-0.8-0.3c-0.4,0-0.8,0.1-1.4,0.4
		l-0.2-0.6c0.2-0.1,0.5-0.2,0.8-0.3c0.3-0.1,0.6-0.1,0.8-0.1c0.6,0,1,0.1,1.3,0.4s0.4,0.7,0.4,1.2v3.3H168.4z M166.7,55.1
		c0.5,0,0.8-0.1,1.1-0.4c0.3-0.2,0.4-0.6,0.4-1v-0.4l-0.7,0c-0.6,0-1,0.1-1.2,0.3s-0.4,0.4-0.4,0.7c0,0.3,0.1,0.5,0.2,0.6
		C166.2,55.1,166.5,55.1,166.7,55.1z"/>
	<path fill="#1D1D1B" d="M171.9,55.1c0.1,0,0.3,0,0.4,0c0.1,0,0.2,0,0.3-0.1v0.6c-0.1,0-0.2,0.1-0.3,0.1c-0.2,0-0.3,0-0.4,0
		c-0.9,0-1.4-0.5-1.4-1.5v-2.8h-0.7v-0.3l0.7-0.3l0.3-1h0.4v1.1h1.4v0.6h-1.4v2.8c0,0.3,0.1,0.5,0.2,0.7
		C171.5,55.1,171.7,55.1,171.9,55.1z"/>
	<path fill="#1D1D1B" d="M175.7,51.4h-1.2v4.2h-0.7v-4.2h-0.9v-0.3l0.9-0.3v-0.3c0-1.2,0.5-1.8,1.5-1.8c0.3,0,0.5,0.1,0.9,0.2
		l-0.2,0.6c-0.3-0.1-0.5-0.1-0.7-0.1c-0.3,0-0.5,0.1-0.6,0.3c-0.1,0.2-0.2,0.5-0.2,0.9v0.3h1.2V51.4z"/>
	<path fill="#1D1D1B" d="M180.7,53.3c0,0.8-0.2,1.4-0.6,1.8c-0.4,0.4-0.9,0.7-1.6,0.7c-0.4,0-0.8-0.1-1.1-0.3
		c-0.3-0.2-0.6-0.5-0.8-0.9s-0.3-0.8-0.3-1.3c0-0.8,0.2-1.4,0.6-1.8s0.9-0.7,1.6-0.7c0.7,0,1.2,0.2,1.6,0.7S180.7,52.5,180.7,53.3z
		 M177.1,53.3c0,0.6,0.1,1.1,0.4,1.4c0.2,0.3,0.6,0.5,1.1,0.5c0.5,0,0.8-0.2,1.1-0.5c0.2-0.3,0.4-0.8,0.4-1.4c0-0.6-0.1-1.1-0.4-1.4
		c-0.2-0.3-0.6-0.5-1.1-0.5c-0.5,0-0.8,0.2-1.1,0.5C177.2,52.2,177.1,52.6,177.1,53.3z"/>
	<path fill="#1D1D1B" d="M184.1,50.8c0.2,0,0.4,0,0.6,0.1l-0.1,0.7c-0.2,0-0.4-0.1-0.5-0.1c-0.4,0-0.7,0.2-1,0.5
		c-0.3,0.3-0.4,0.7-0.4,1.2v2.6H182v-4.8h0.6l0.1,0.9h0c0.2-0.3,0.4-0.6,0.6-0.7C183.6,50.9,183.8,50.8,184.1,50.8z"/>
	<path fill="#1D1D1B" d="M191.7,55.7v-3.1c0-0.4-0.1-0.7-0.2-0.9c-0.2-0.2-0.4-0.3-0.8-0.3c-0.5,0-0.8,0.1-1,0.4s-0.3,0.7-0.3,1.2
		v2.7h-0.7v-3.1c0-0.4-0.1-0.7-0.2-0.9c-0.2-0.2-0.4-0.3-0.8-0.3c-0.5,0-0.8,0.1-1,0.4c-0.2,0.3-0.3,0.7-0.3,1.3v2.5h-0.7v-4.8h0.6
		l0.1,0.7h0c0.1-0.2,0.3-0.4,0.6-0.5c0.2-0.1,0.5-0.2,0.8-0.2c0.7,0,1.2,0.3,1.5,0.8h0c0.1-0.2,0.3-0.4,0.6-0.6s0.6-0.2,0.9-0.2
		c0.5,0,0.9,0.1,1.2,0.4c0.3,0.3,0.4,0.7,0.4,1.3v3.1H191.7z"/>
</g>
<g>
	<polygon fill="#1D1D1B" points="65.9,28.9 71.7,28.9 71.7,44.1 76.5,44.1 76.5,28.9 78.1,28.9 75.1,24.5 65.9,24.5 	"/>
	<polygon fill="#1D1D1B" points="125.6,36.4 134.5,36.4 134.5,32.1 125.6,32.1 125.6,28.8 135.8,28.8 135.8,24.5 120.8,24.5 
		120.8,44.1 135.9,44.1 135.9,39.8 125.6,39.8 	"/>
	<polygon fill="#1D1D1B" points="137.5,44.1 142.3,44.1 142.3,36.7 151.4,36.7 151.4,32.4 142.3,32.4 142.3,28.9 152.6,28.9 
		152.6,24.5 137.5,24.5 	"/>
	<polygon fill="#1D1D1B" points="182.7,39.8 182.7,36.4 191.7,36.4 191.7,32.1 182.7,32.1 182.7,28.8 192.9,28.8 192.9,24.5 
		178,24.5 178,44.1 193.1,44.1 193.1,39.8 	"/>
	<path fill="#1D1D1B" d="M87,33.8h-2.3l-5-4.9h7.2c1.1,0,3,0.3,3,2.5C89.9,32.9,88.8,33.8,87,33.8 M90.8,37.2
		c2.5-1.1,3.9-3.2,3.9-6.1c0-4.1-2.9-6.6-7.5-6.6h-9h-1.4L85.8,38h0l4.1,6.1h5.6L90.8,37.2z"/>
	<path fill="#1D1D1B" d="M167.8,33.8h-2.3l-4.9-4.9h7.2c1.1,0,3,0.3,3,2.5C170.7,32.9,169.6,33.8,167.8,33.8 M171.6,37.2
		c2.5-1.1,3.9-3.2,3.9-6.1c0-4.1-2.9-6.6-7.5-6.6h-9h-1.4l9,13.5h0l4.1,6.1h5.6L171.6,37.2z"/>
	<polygon fill="#1D1D1B" points="98.8,24.5 97.1,24.5 97.1,44.1 101.9,44.1 101.8,29 	"/>
	<polygon fill="#1D1D1B" points="156,24.5 155.9,24.5 154.3,24.5 154.3,44.1 159,44.1 159,29 	"/>
	<path fill="#1D1D1B" d="M103.3,28.7h7.7c0.9,0,2.5,0.2,2.5,1.7c0,1.1-0.9,1.7-2.7,1.7h-3.4L103.3,28.7z M108.3,36.3h3.4
		c1.9,0,2.8,0.6,2.8,1.8c0,1.2-0.9,1.8-2.7,1.8h-1.1l2.8,4.1c3.7-0.4,5.7-2.4,5.7-5.5c0-2.3-1-3.7-3.2-4.7c1.5-1,2.2-2.3,2.2-4.1
		c0-3.2-2.6-5.2-6.6-5.2h-11.1L108.3,36.3z"/>
</g>
<g>
	<path fill="#1D1D1B" d="M28.7,62.3l4.8,4.8c6.7-0.6,12.8-3.7,17.4-8.7c4.6-5,7.1-11.5,7.1-18.3C58,25.1,45.9,13,30.9,13
		C16,13,3.8,25.1,3.8,40.1c0,6.8,2.5,13.3,7.1,18.3c4.5,4.9,10.7,8,17.3,8.7l0-4.8C17,60.9,8.6,51.4,8.6,40.1
		c0-12.3,10-22.3,22.3-22.3c12.3,0,22.3,10,22.3,22.3c0,11.3-8.5,20.9-19.7,22.2C31.9,62.4,30.3,62.4,28.7,62.3z"/>
	<polygon fill="#1D1D1B" points="26.9,55.7 32,55.7 32,44 42.9,44 42.9,38.8 31.2,38.8 26.9,34.5 	"/>
	<polygon fill="#1D1D1B" points="26.4,34 44.3,34 44.3,28.9 17.6,28.9 17.6,34 	"/>
</g>
</svg>
