<svg id="Ebene_1" data-name="Ebene 1" xmlns="http://www.w3.org/2000/svg" viewBox="0 0 1570.4 360"><defs><style>.cls-1{fill:#fff;}</style></defs><title>Artboard 1</title><path class="cls-1" d="M535.4,187.4,481.6,49.3H410.8l-15.3,35c-5.4-11.7-22.4-43.9-67.3-43.9H0V328.2s141.5-.9,157.3-.9c24.6,0,85.7-9.6,85.7-79.8,0-24.2-4.5-30.5-4.5-30.5H304c31.4,0,29.6,37.7,29.6,37.7l-28.7,74.4H414.3l-12.6-61.9h96.8L521,330h80.7V0H535.4ZM132.7,89.7c18.4,0,33.2,9.4,33.2,30.5,0,24.2-18.4,35.9-37.7,35.9H65.5V107.7l-18.9-18ZM122,277.6c-32.3,0-56.5-.5-56.5-.5V200.9h72.6c12.1,0,34.1,5.8,34.1,37.7C172.2,261.4,154.2,277.6,122,277.6ZM297.7,167.2H228.2l-.4-78H300c17,0,37.2,12.5,37.2,36.7C337.2,145.7,326.4,167.2,297.7,167.2Zm112.6,50.3L445.7,118l34.5,99.5Z"></path><path class="cls-1" d="M1091.3,68.8a57.78,57.78,0,0,0-47.5-24.2H711.7v56.6h81.2v130L679.4,51.4H608.1V330.7h60.5l.5-187L790.2,331.6H861v-213L839.5,99.8h186.3c12.6,5.4,18,17.4,18,31.8,0,19.7-4.5,41.3-44.8,41.3H868V332.5h66.4v-113h78c17,0,29.6,18.8,32.3,43.9s4.5,55.6,8.1,67.3h104.9V44.7h-66.4Zm.9,143.6c-4.5-14.3-18.9-19.8-18.9-19.8a43.09,43.09,0,0,0,18.8-16.1Z"></path><path class="cls-1" d="M1415.2,276.4V209.1h139V158h-139V98.8h153.3V43.3l-403.5.9v287h405.3V276.5H1415.2v-.1ZM1212.6,95.5h75.5c22.1,0,42.5,5.4,42.5,32,0,23.4-16.2,33.1-37.8,33.1h-62.6V114.2ZM1296.9,281h-66.1V204.6h67.3c26.4,0,44.5,11.3,44.5,39.7C1342.5,273.2,1321.3,281,1296.9,281Z"></path></svg>